# AST/ASF file generated using VICON BodyLanguage
# -----------------------------------------------
:version 1.10
:name VICON
:units
  mass 1.0
  length 0.45
  angle deg
:documentation
   .ast/.asf automatically generated from VICON data using
   VICON BodyBuilder and BodyLanguage model FoxedUp or BRILLIANT.MOD
:root
   order TX TY TZ RX RY RZ
   axis XYZ
   position 0 0 0  
   orientation 0 0 0 
:bonedata
  begin
     id 1 
     name lhipjoint
     direction 0.573633 -0.743009 0.344793 
     length 2.46257 
     axis 0 0 0  XYZ
  end
  begin
     id 2 
     name lfemur
     direction 0.34202 -0.939693 0  
     length 7.3842  
     axis 0 0 20  XYZ
    dof rx ry rz
    limits (-160.0 20.0)
           (-70.0 70.0)
           (-60.0 70.0)
  end
  begin
     id 3 
     name ltibia
     direction 0.34202 -0.939693 0   
     length 7.50407   
     axis 0 0 20   XYZ
    dof rx
    limits (-10.0 170.0)
  end
  begin
     id 4 
     name lfoot
     direction 0.110749 -0.304281 0.946123   
     length 1.95925   
     axis -90 7.62852e-016 20   XYZ
    dof rx rz
    limits (-45.0 90.0)
           (-70.0 20.0)
  end
  begin
     id 5 
     name ltoes
     direction 1.53554e-011 -4.21843e-011 1   
     length 0.978318   
     axis -90 7.62852e-016 20   XYZ
    dof rx
    limits (-90.0 20.0)
  end
  begin
     id 6 
     name rhipjoint
     direction -0.488109 -0.791693 0.367385   
     length 2.31113  
     axis 0 0 0  XYZ 
  end
  begin
     id 7 
     name rfemur
     direction -0.34202 -0.939693 0   
     length 7.40965   
     axis 0 0 -20   XYZ
    dof rx ry rz
    limits (-160.0 20.0)
           (-70.0 70.0)
           (-70.0 60.0)
  end
  begin
     id 8 
     name rtibia
     direction -0.34202 -0.939693 0   
     length 7.55548   
     axis 0 0 -20   XYZ
    dof rx
    limits (-10.0 170.0)
 end
 begin
     id 9 
     name rfoot
     direction -0.127594 -0.350561 0.927808   
     length 2.07199  
     axis -90 -7.62852e-016 -20   XYZ
    dof rx rz
    limits (-45.0 90.0)
           (-20.0 70.0)
  end
  begin
     id 10 
     name rtoes
     direction -1.53542e-011 -4.21909e-011 1   
     length 1.02667   
     axis -90 -7.62852e-016 -20   XYZ
    dof rx
    limits (-90.0 20.0)
  end
  begin
     id 11 
     name lowerback
     direction -0.0103342 0.997298 -0.0727278   
     length 2.02836   
     axis 0 0 0   XYZ
    dof rx ry rz
    limits (-20.0 45.0)
           (-30.0 30.0)
           (-30.0 30.0)
  end
  begin
     id 12 
     name upperback
     direction 0.0171146 0.999786 -0.011606   
     length 2.03179   
     axis 0 0 0   XYZ
    dof rx ry rz
    limits (-20.0 45.0)
           (-30.0 30.0)
           (-30.0 30.0)
  end
  begin
     id 13 
     name thorax
     direction 0.0216927 0.999513 0.0224343   
     length 2.03882   
     axis 0 0 0   XYZ
    dof rx ry rz
    limits (-20.0 45.0)
           (-30.0 30.0)
           (-30.0 30.0)
  end
  begin
     id 14 
     name lowerneck
     direction 0.000989287 0.993907 0.110221   
     length 1.75428   
     axis 0 0 0   XYZ
    dof rx ry rz
    limits (-20.0 45.0)
           (-30.0 30.0)
           (-30.0 30.0)
  end
  begin
     id 15 
     name upperneck
     direction -0.0172474 0.994813 -0.100253   
     length 1.77058   
     axis 0 0 0   XYZ
    dof rx ry rz
    limits (-20.0 45.0)
           (-30.0 30.0)
           (-30.0 30.0)
  end
  begin
     id 16
     name head
     direction -0.00486455 0.99894 -0.0457663  
     length 1.77427  
     axis 0 0 0   XYZ
    dof rx ry rz
    limits (-20.0 45.0)
           (-30.0 30.0)
           (-30.0 30.0)
  end
  begin
     id 17 
     name lclavicle
     direction 0.927314 0.333734 -0.169441  
     length 3.97584  
     axis 0 0 0   XYZ
    dof ry rz
    limits (-20.0 10.0)
           (0.0 20.0)
  end
  begin
     id 18 
     name lhumerus
     direction 1 -4.48965e-011 -3.25313e-028   
     length 4.76468   
     axis 180 -30 -90   XYZ
    dof rx ry rz
    limits (-60.0 90.0)
           (-90.0 90.0)
           (-90.0 90.0)
  end
  begin
     id 19
     name lradius
     direction 1 -4.48969e-011 -2.8465e-028   
     length 3.52712   
     axis -180 -30 -90   XYZ
    dof rx
    limits (-10.0 170.0)
  end
  begin
     id 20
     name lwrist
     direction 1 -4.4896e-011 -7.78665e-028   
     length 1.76356   
     axis 1.91374e-015 90 90   XYZ
    dof ry
    limits (-180.0 0.0)
 end
  begin
     id 21 
     name lhand
     direction 1 -4.48959e-011 -1.55733e-027   
     length 0.859564   
     axis 9.9371e-016 90 90   XYZ
    dof rx rz
    limits (-90.0 90.0)
           (-45.0 45.0)
  end
  begin
     id 22 
     name lfingers
     direction 1 -4.48965e-011 -3.11466e-027   
     length 0.693002   
     axis 1.98742e-015 90 90   XYZ
    dof rx
    limits (0.0 90.0)
  end
  begin
     id 23
     name lthumb
     direction 0.707107 -6.34948e-011 0.707107   
     length 0.995017   
     axis -90 45 2.85299e-015   XYZ
    dof rx rz
    limits (-45.0 45.0)
           (-45.0 45.0)
  end
  begin
     id 24 
     name rclavicle
     direction -0.899388 0.348209 -0.264294   
     length 3.68366  
     axis 0 0 0   XYZ 
    dof ry rz
    limits (-10.0 20.0)
           (-20.0 0.0)
  end
  begin
     id 25 
     name rhumerus
     direction -1 -4.48965e-011 -3.01536e-027  
     length 4.90577   
     axis 180 30 90   XYZ
    dof rx ry rz
    limits (-90.0 60.0)
           (-90.0 90.0)
           (-90.0 90.0)
  end
  begin
     id 26 
     name rradius
     direction -1 -4.48966e-011 3.93291e-027   
     length 3.42692   
     axis -180 30 90   XYZ
    dof rx
    limits (-10.0 170.0)
  end
  begin
     id 27 
     name rwrist
     direction -1 -4.48969e-011 -7.78665e-028   
     length 1.71346   
     axis 1.91374e-015 -90 -90   XYZ
    dof ry
    limits (-180.0 0.0)
  end
  begin
     id 28
     name rhand
     direction -1 -4.48967e-011 -1.55733e-027   
     length 0.740957   
     axis 9.9371e-016 -90 -90   XYZ
    dof rx rz
    limits (-90.0 90.0)
           (-45.0 45.0)
  end
  begin
     id 29
     name rfingers
     direction -1 -4.48949e-011 -3.11466e-027   
     length 0.597378   
     axis 1.98742e-015 -90 -90   XYZ
    dof rx
    limits (0.0 90.0)
  end
  begin
     id 30
     name rthumb
     direction -0.707107 -6.34931e-011 0.707107   
     length 0.857719   
     axis -90 -45 -2.85299e-015   XYZ
    dof rx rz
    limits (-45.0 45.0)
           (-45.0 45.0)
  end
:hierarchy
  begin
    root lhipjoint rhipjoint lowerback
    lhipjoint lfemur
    lfemur ltibia
    ltibia lfoot
    lfoot ltoes
    rhipjoint rfemur
    rfemur rtibia
    rtibia rfoot
    rfoot rtoes
    lowerback upperback
    upperback thorax
    thorax lowerneck lclavicle rclavicle
    lowerneck upperneck
    upperneck head
    lclavicle lhumerus
    lhumerus lradius
    lradius lwrist
    lwrist lhand lthumb
    lhand lfingers
    rclavicle rhumerus
    rhumerus rradius
    rradius rwrist
    rwrist rhand rthumb
    rhand rfingers
  end

#!OML:ASF E:\I on waltz\AllaLogoMonkeySwing\Project 1\Capture day 1\Session 1\Subject1.ASF
:FULLY-SPECIFIED
:DEGREES
17
root 1.77651 17.7612 5.52299 0.923945 -0.940808 -2.94788
lowerback 3.5433 0.292202 -0.69564
upperback -1.04541 0.410154 1.79677
thorax -3.08084 0.235312 2.21493
lowerneck -13.1123 -0.0565905 -1.56742
upperneck 21.2683 0.533304 -1.09768
head 8.81184 0.00824859 -0.0484072
rclavicle -7.07743e-015 -1.27719e-014
rhumerus -28.1538 -19.5645 -81.7763
rradius 19.2351
rwrist 13.0177
rhand -3.99773 -37.3862
rfingers 7.12502
rthumb 21.7561 -66.1835
lclavicle -7.07743e-015 -1.27719e-014
lhumerus -39.4424 25.8525 78.5073
lradius 31.2565
lwrist -8.85888
lhand -6.02184 -11.3966
lfingers 7.12502
lthumb 19.8114 17.6138
rfemur -0.422991 0.594882 18.9555
rtibia 17.0877
rfoot -14.8214 -13.7793
rtoes 13.9027
lfemur 5.17512 -0.156842 -14.6699
ltibia 10.7262
lfoot -16.0964 5.28209
ltoes -30.5172
18
root 1.77733 17.7644 5.5065 0.964033 -0.954239 -2.98472
lowerback 3.62583 0.320902 -0.637055
upperback -1.0036 0.451559 1.81683
thorax -3.08573 0.254782 2.19985
lowerneck -13.1789 -0.0639817 -1.66466
upperneck 21.2668 0.530839 -1.02753
head 8.82329 0.00657569 -0.0086193
rclavicle 1.25304e-014 7.55382e-015
rhumerus -28.0504 -19.604 -81.7781
rradius 19.2435
rwrist 13.0625
rhand -4.0915 -37.2824
rfingers 7.12502
rthumb 21.6661 -66.0901
lclavicle 1.25304e-014 7.55382e-015
lhumerus -39.354 25.8762 78.5465
lradius 31.2969
lwrist -8.99713
lhand -5.98747 -11.3149
lfingers 7.12502
lthumb 19.8444 17.692
rfemur -0.549493 0.598447 18.9898
rtibia 17.1174
rfoot -14.7545 -13.7705
rtoes 13.846
lfemur 5.0408 -0.144543 -14.632
ltibia 10.7772
lfoot -16.0456 5.24768
ltoes -30.3896
19
root 1.7767 17.7663 5.49022 0.937065 -0.885811 -2.9415
lowerback 3.73289 0.300757 -0.729668
upperback -0.918863 0.420663 1.85868
thorax -3.0584 0.240718 2.29682
lowerneck -13.1648 -0.0441231 -1.79109
upperneck 21.1718 0.572292 -0.969691
head 8.78773 0.0231404 0.0369082
rclavicle -3.4601e-015 6.36111e-015
rhumerus -27.8924 -19.5661 -81.777
rradius 19.2512
rwrist 13.1687
rhand -4.05375 -37.27
rfingers 7.12502
rthumb 21.7023 -66.0735
lclavicle -3.4601e-015 6.36111e-015
lhumerus -39.2301 25.9352 78.6342
lradius 31.3311
lwrist -9.02793
lhand -5.95215 -11.39
lfingers 7.12502
lthumb 19.8783 17.6134
rfemur -0.586486 0.545262 18.9454
rtibia 17.1446
rfoot -14.6946 -13.7891
rtoes 13.9164
lfemur 4.95279 -0.125563 -14.6617
ltibia 10.852
lfoot -16.0021 5.16103
ltoes -30.2992
20
root 1.77507 17.7677 5.47294 0.874678 -0.838141 -2.94162
lowerback 3.87867 0.288171 -0.783373
upperback -0.818094 0.401703 1.90734
thorax -3.03652 0.231778 2.37817
lowerneck -13.0112 -0.00339537 -1.84469
upperneck 20.9132 0.629008 -0.952331
head 8.67077 0.0507881 0.0581309
rclavicle -5.48832e-015 -8.94531e-016
rhumerus -27.6965 -19.4915 -81.804
rradius 19.1972
rwrist 13.2355
rhand -3.96688 -37.1641
rfingers 7.12502
rthumb 21.7858 -65.9579
lclavicle -5.48832e-015 -8.94531e-016
lhumerus -39.0524 26 78.7405
lradius 31.3268
lwrist -9.06116
lhand -5.93418 -11.5213
lfingers 7.12502
lthumb 19.8956 17.4803
rfemur -0.602491 0.493178 18.95
rtibia 17.1944
rfoot -14.6508 -13.7771
rtoes 13.9926
lfemur 4.90832 -0.111224 -14.642
ltibia 10.9217
lfoot -15.9953 5.07433
ltoes -30.3388
21
root 1.77503 17.7682 5.45467 0.803539 -0.87852 -2.98131
lowerback 4.0824 0.325527 -0.710228
upperback -0.726115 0.454681 1.9112
thorax -3.05828 0.256382 2.33694
lowerneck -12.9082 -0.00119852 -1.78677
upperneck 20.7208 0.61791 -0.972746
head 8.58656 0.0505108 0.0402933
rclavicle 7.22458e-015 -2.88238e-015
rhumerus -27.5526 -19.4499 -81.8861
rradius 19.1752
rwrist 13.2193
rhand -3.93097 -37.0842
rfingers 7.12502
rthumb 21.8202 -65.8741
lclavicle 7.22458e-015 -2.88238e-015
lhumerus -38.8479 25.9562 78.835
lradius 31.3211
lwrist -9.1149
lhand -5.9018 -11.5781
lfingers 7.12502
lthumb 19.9267 17.4202
rfemur -0.638147 0.478471 18.9862
rtibia 17.2711
rfoot -14.6182 -13.7105
rtoes 14.0427
lfemur 4.89865 -0.100725 -14.5973
ltibia 10.9743
lfoot -16.0332 5.06177
ltoes -30.4366
22
root 1.77486 17.7681 5.43522 0.766141 -0.885816 -2.90772
lowerback 4.2793 0.37259 -0.737547
upperback -0.64234 0.514343 1.87412
thorax -3.08532 0.285841 2.30932
lowerneck -12.88 -0.0357127 -1.75857
upperneck 20.6112 0.549835 -0.921449
head 8.54414 0.0272896 0.0453036
rclavicle -1.06567e-014 1.78906e-014
rhumerus -27.4483 -19.4159 -81.9693
rradius 19.2541
rwrist 13.1164
rhand -3.91871 -37.1531
rfingers 7.12502
rthumb 21.832 -65.9416
lclavicle -1.06567e-014 1.78906e-014
lhumerus -38.6319 25.6709 79.0478
lradius 31.4248
lwrist -8.97793
lhand -5.92333 -11.5008
lfingers 7.12502
lthumb 19.9061 17.4997
rfemur -0.714743 0.470718 18.9046
rtibia 17.3482
rfoot -14.5683 -13.6926
rtoes 14.0482
lfemur 4.8307 -0.0527093 -14.6659
ltibia 11.0423
lfoot -16.0749 5.01428
ltoes -30.4758
23
root 1.77446 17.7696 5.41447 0.806996 -0.838088 -2.78897
lowerback 4.40952 0.407105 -0.836113
upperback -0.591786 0.553642 1.84095
thorax -3.10889 0.306657 2.32733
lowerneck -12.7684 -0.0729222 -1.71404
upperneck 20.5068 0.48683 -0.933773
head 8.48861 0.0013079 0.0267916
rclavicle -1.01225e-014 -1.98785e-015
rhumerus -27.3914 -19.2742 -82.0368
rradius 19.3966
rwrist 12.8932
rhand -3.84826 -37.3736
rfingers 7.12502
rthumb 21.8997 -66.1542
lclavicle -1.01225e-014 -1.98785e-015
lhumerus -38.4746 25.2507 79.344
lradius 31.6393
lwrist -8.65495
lhand -6.00309 -11.398
lfingers 7.12502
lthumb 19.8294 17.6105
rfemur -0.862881 0.407589 18.7717
rtibia 17.3922
rfoot -14.4835 -13.6841
rtoes 13.987
lfemur 4.62311 0.0634048 -14.769
ltibia 11.1723
lfoot -16.0816 4.86058
ltoes -30.5204
24
root 1.77597 17.7729 5.39335 0.846331 -0.805695 -2.74645
lowerback 4.53916 0.394093 -0.863707
upperback -0.531257 0.533893 1.83344
thorax -3.11864 0.296828 2.33605
lowerneck -12.669 -0.0568944 -1.59167
upperneck 20.4672 0.504182 -1.04709
head 8.45747 0.00805129 -0.0297549
rclavicle -5.72748e-015 1.28216e-014
rhumerus -27.3224 -19.1155 -82.1492
rradius 19.5213
rwrist 12.81
rhand -3.86895 -37.5085
rfingers 7.12502
rthumb 21.8798 -66.2914
lclavicle -5.72748e-015 1.28216e-014
lhumerus -38.369 25.0748 79.5043
lradius 31.8633
lwrist -8.40072
lhand -6.01077 -11.4165
lfingers 7.12502
lthumb 19.822 17.5927
rfemur -1.00503 0.316995 18.7102
rtibia 17.4326
rfoot -14.4226 -13.6374
rtoes 13.8799
lfemur 4.41769 0.123775 -14.8095
ltibia 11.3092
lfoot -16.0732 4.76359
ltoes -30.575
25
root 1.77636 17.7751 5.36926 0.780314 -0.784157 -2.86232
lowerback 4.7967 0.351578 -0.731967
upperback -0.410736 0.484468 1.86302
thorax -3.1359 0.26939 2.29523
lowerneck -12.5614 -0.00709778 -1.42543
upperneck 20.3895 0.567901 -1.20522
head 8.41221 0.0358707 -0.103523
rclavicle -1.23278e-014 1.21259e-014
rhumerus -27.1486 -19.1083 -82.2765
rradius 19.5421
rwrist 12.9719
rhand -3.91573 -37.514
rfingers 7.12502
rthumb 21.8349 -66.3021
lclavicle -1.23278e-014 1.21259e-014
lhumerus -38.1901 25.102 79.5614
lradius 32.0034
lwrist -8.34009
lhand -5.98579 -11.5053
lfingers 7.12502
lthumb 19.846 17.5014
rfemur -1.05326 0.292695 18.8429
rtibia 17.5063
rfoot -14.399 -13.6422
rtoes 13.7734
lfemur 4.36143 0.0800944 -14.6801
ltibia 11.3825
lfoot -16.0736 4.76441
ltoes -30.5191
26
root 1.77444 17.7749 5.34435 0.701362 -0.77008 -2.87563
lowerback 5.07566 0.362016 -0.679217
upperback -0.284064 0.499795 1.83802
thorax -3.16197 0.275175 2.23769
lowerneck -12.3157 0.0105858 -1.22884
upperneck 20.2216 0.58231 -1.38931
head 8.31168 0.0417683 -0.196133
rclavicle 1.16786e-015 -1.90833e-014
rhumerus -26.9452 -19.2215 -82.362
rradius 19.5022
rwrist 13.0759
rhand -3.87035 -37.6027
rfingers 7.12502
rthumb 21.8785 -66.3858
lclavicle 1.16786e-015 -1.90833e-014
lhumerus -37.959 24.9571 79.6652
lradius 32.0977
lwrist -8.32175
lhand -6.01251 -11.5841
lfingers 7.12502
lthumb 19.8203 17.4253
rfemur -1.09847 0.281632 18.8704
rtibia 17.587
rfoot -14.3752 -13.6496
rtoes 13.5914
lfemur 4.3224 0.0454192 -14.6575
ltibia 11.4426
lfoot -16.0347 4.76558
ltoes -30.4826
27
root 1.77323 17.7763 5.32092 0.723823 -0.784815 -2.65697
lowerback 5.24635 0.401263 -0.860697
upperback -0.19544 0.537476 1.75392
thorax -3.16895 0.295628 2.24943
lowerneck -12.0544 0.00494664 -1.10553
upperneck 20.1177 0.563001 -1.4883
head 8.22955 0.0343112 -0.25155
rclavicle 1.1104e-014 2.38542e-015
rhumerus -26.7644 -19.1865 -82.4689
rradius 19.4745
rwrist 12.9714
rhand -3.8972 -37.5984
rfingers 7.12502
rthumb 21.8527 -66.3844
lclavicle 1.1104e-014 2.38542e-015
lhumerus -37.9093 24.5801 79.8703
lradius 32.4893
lwrist -8.08626
lhand -6.02901 -11.4908
lfingers 7.12502
lthumb 19.8045 17.5203
rfemur -1.27224 0.230944 18.6201
rtibia 17.6878
rfoot -14.3159 -13.5887
rtoes 13.4249
lfemur 4.18716 0.0656573 -14.8999
ltibia 11.4874
lfoot -15.9441 4.72735
ltoes -30.3949
